<?xml version="1.0" encoding="UTF-8"?>
<svg id="Layer_2" data-name="Layer 2" xmlns="http://www.w3.org/2000/svg" xmlns:xlink="http://www.w3.org/1999/xlink" viewBox="0 0 841.89 595.28">
  <defs>
    <style>
      .cls-1 {
        clip-path: url(#clippath);
      }

      .cls-2 {
        fill: none;
      }

      .cls-2, .cls-3 {
        stroke-width: 0px;
      }

      .cls-3 {
        fill: #231f20;
      }
    </style>
    <clipPath id="clippath">
      <rect class="cls-2" width="841.89" height="595.28"/>
    </clipPath>
  </defs>
  <g id="Layer_1-2" data-name="Layer 1">
    <polygon class="cls-3" points="208.35 334.48 208.35 260.8 223.79 260.8 223.79 321.11 250.52 321.11 250.52 334.48 208.35 334.48"/>
    <rect class="cls-3" x="263.47" y="260.8" width="15.44" height="73.68"/>
    <g class="cls-1">
      <path class="cls-3" d="M293.52,297.69c0-24.04,12.75-39.07,33.16-39.07,16.17,0,27.67,10.47,30.15,27.56l-14.3,2.69c-1.76-10.57-7.56-16.89-15.85-16.89-10.88,0-17.72,9.74-17.72,25.7s7.67,25.49,19.89,25.49c9.85,0,17.2-7.46,18.96-19.69l14.51,2.38c-2.38,18.86-15.44,30.78-33.57,30.78-21.76,0-35.23-15.03-35.23-38.96"/>
      <path class="cls-3" d="M370.3,285.1c0-7.07,5.14-12.14,12.08-12.14s12.08,5.07,12.08,12.14-5.07,12.02-12.08,12.02-12.14-5.08-12.08-12.02M389.14,285.1c0-3.93-2.84-6.83-6.7-6.83s-6.83,2.9-6.83,6.83,2.9,6.71,6.83,6.71,6.7-2.78,6.7-6.71M383.34,318.09l-1.87-1.33,31.23-44.28,1.99,1.33-31.35,44.28ZM401.1,306.25c.06-7.07,5.13-12.14,12.08-12.14s12.08,5.07,12.08,12.14-5.07,12.02-12.08,12.02-12.08-5.07-12.08-12.02M419.95,306.25c0-3.93-2.84-6.83-6.7-6.83s-6.83,2.9-6.83,6.83,2.84,6.7,6.83,6.7,6.7-2.78,6.7-6.7"/>
      <path class="cls-3" d="M472.93,325.67l-3.21-12.64c-1.14-4.35-4.14-7.46-8.08-7.46h-9.22v28.91h-15.44v-73.68h30.15c16.37,0,26.74,8.81,26.74,22.69,0,9.33-5.8,16.99-15.75,19.38v.1c3.83,1.66,5.7,4.87,6.74,9.12l2.38,9.74c.52,2.38,1.55,3.94,3.42,3.94,1.45,0,3.01-1.04,4.46-3.01l3.83,7.57c-3.32,3.73-8.29,5.91-13.37,5.91-6.84,0-11.09-4.25-12.64-10.57M452.41,294.58h13.47c7.57,0,12.54-4.25,12.54-10.88s-4.97-11.09-12.54-11.09h-13.47v21.97Z"/>
      <polygon class="cls-3" points="510.75 334.48 510.75 260.8 529.82 260.8 556.14 316.03 556.34 316.03 556.34 260.8 570.85 260.8 570.85 334.48 551.68 334.48 525.36 279.45 525.15 279.45 525.15 334.48 510.75 334.48"/>
      <polygon class="cls-3" points="587.74 334.48 587.74 260.8 632.51 260.8 632.51 273.44 602.66 273.44 602.66 291.06 628.36 291.06 628.36 302.25 602.66 302.25 602.66 321.94 633.54 321.94 633.54 334.48 587.74 334.48"/>
    </g>
  </g>
</svg>